# xmcd CD database file
#
# Track frame offsets:
#	150
#	32038
#	71244
#	103195
#	137904
#	170635
#	205769
#	229200
#	256270
#
# Disc length: 3712 seconds
#
# Revision: 0
# Processed by: cddbd v1.5.2PL0 Copyright (c) Steve Scherf et al.
# Submitted via: CDex 1.51
#
DISCID=850e7e09
DTITLE=Sam Newsome - This Masquerade
DYEAR=2001
DGENRE=Jazz
TTITLE0=Satin Doll
TTITLE1=Stella By Starlight
TTITLE2=The Girl Of Ipanema
TTITLE3=Footprints
TTITLE4=This Masquerade
TTITLE5=Toryanse
TTITLE6=Blue Monk
TTITLE7=What's New
TTITLE8=Pent-Up House
EXTD=YEAR: 2001
EXTT0=
EXTT1=
EXTT2=
EXTT3=
EXTT4=
EXTT5=
EXTT6=
EXTT7=
EXTT8=
PLAYORDER=
